<?xml version="1.0" encoding="UTF-8"?>
<svg xmlns="http://www.w3.org/2000/svg" style="display: none;">
  <symbol id="bullseye" viewBox="0 0 512 512">
    <path d="M256 0C114.6 0 0 114.6 0 256s114.6 256 256 256s256-114.6 256-256S397.4 0 256 0zM256 464c-114.7 0-208-93.31-208-208S141.3 48 256 48s208 93.31 208 208S370.7 464 256 464zM256 304c-26.47 0-48-21.53-48-48s21.53-48 48-48s48 21.53 48 48S282.5 304 256 304zM256 240c-8.836 0-16 7.162-16 16s7.164 16 16 16s16-7.162 16-16S264.8 240 256 240zM256 128c-70.69 0-128 57.31-128 128s57.31 128 128 128s128-57.31 128-128S326.7 128 256 128zM256 352c-52.94 0-96-43.06-96-96s43.06-96 96-96s96 43.06 96 96S308.9 352 256 352z"/>
  </symbol>
</svg>

